<?xml version="1.0" encoding="utf-8"?>
<!-- Generator: Adobe Illustrator 24.1.1, SVG Export Plug-In . SVG Version: 6.00 Build 0)  -->
<svg version="1.1" xmlns="http://www.w3.org/2000/svg" xmlns:xlink="http://www.w3.org/1999/xlink" x="0px" y="0px"
	 viewBox="0 0 406 9" style="enable-background:new 0 0 406 9;" xml:space="preserve">
<style type="text/css">
	.st0{fill:#12181C;}
	.st1{fill:#40FFD1;}
	.st2{opacity:0.2;fill:#E4F1F9;}
</style>
<g id="Layer_1">
</g>
<g id="Layer_2">
	<path class="st1" d="M46.18,9H2.82C1.26,9,0,7.74,0,6.18V2.82C0,1.26,1.26,0,2.82,0h43.36C47.74,0,49,1.26,49,2.82v3.36
		C49,7.74,47.74,9,46.18,9z"/>
	<path class="st1" d="M137.18,9H93.82C92.26,9,91,7.74,91,6.18V2.82C91,1.26,92.26,0,93.82,0h43.36c1.56,0,2.82,1.26,2.82,2.82v3.36
		C140,7.74,138.74,9,137.18,9z"/>
	<path class="st1" d="M230.18,9h-43.36C185.26,9,184,7.74,184,6.18V2.82c0-1.56,1.26-2.82,2.82-2.82h43.36
		c1.56,0,2.82,1.26,2.82,2.82v3.36C233,7.74,231.74,9,230.18,9z"/>
	<path class="st1" d="M318.18,9h-43.36C273.26,9,272,7.74,272,6.18V2.82c0-1.56,1.26-2.82,2.82-2.82h43.36
		c1.56,0,2.82,1.26,2.82,2.82v3.36C321,7.74,319.74,9,318.18,9z"/>
	<path class="st2" d="M403.18,9h-43.36C358.26,9,357,7.74,357,6.18V2.82c0-1.56,1.26-2.82,2.82-2.82h43.36
		c1.56,0,2.82,1.26,2.82,2.82v3.36C406,7.74,404.74,9,403.18,9z"/>
</g>
</svg>
